<svg xmlns="http://www.w3.org/2000/svg" width="580" height="300" xmlns:v="https://vecta.io/nano"><g transform="matrix(1.23 0 0 1.23 128.4 150.08)"><g transform="translate(-6 8)" clip-path="url(#B)"><linearGradient id="A" gradientUnits="userSpaceOnUse" x1=".448" y1="16.413" x2="148.448" y2="191.541"><stop offset="0%" stop-color="#508ab7"/><stop offset="100%" stop-color="#2d1342"/></linearGradient><clipPath id="B"><path d="M-74-104H86V88H-74z"/></clipPath><path transform="translate(-74 -104)" d="M.127 43.899c-.99-6.773 3.919-13.036 10.965-13.988l102.061-13.789c7.045-.952 13.56 3.767 14.55 10.541l20.171 137.972c.99 6.774-3.919 13.036-10.965 13.988l-97.807 13.214c-9.394 1.27-18.08-5.023-19.4-14.053L.127 43.899z" fill="url(#A)"/></g><g transform="translate(5 -5)" clip-path="url(#D)"><linearGradient id="C" gradientUnits="userSpaceOnUse" x1="11.186" y1="19.154" x2="158.875" y2="162.67"><stop offset="0%" stop-color="#49c7ff"/><stop offset="100%" stop-color="#bd36ff"/></linearGradient><clipPath id="D"><path d="M-85-91H75v192H-85z"/></clipPath><path transform="translate(-85 -91)" d="M10.138 30.573c-1.073-7.694 4.245-14.808 11.878-15.889L124.678.139c7.632-1.081 14.689 4.279 15.762 11.974l19.422 139.315c1.073 7.694-4.245 14.808-11.877 15.89L45.322 181.861c-7.632 1.082-14.69-4.279-15.762-11.973L10.138 30.573z" fill="url(#C)"/></g><g transform="translate(5.25 -5)" clip-path="url(#E)"><clipPath id="E"><path d="M-85.25-91h160v192h-160z"/></clipPath><path d="M-66.152-57.258c-.763-5.466 3.02-10.521 8.451-11.289l94.397-13.354c5.43-.768 10.451 3.04 11.215 8.507L66.152 57.258c.763 5.467-3.02 10.521-8.451 11.289l-94.397 13.354c-5.431.769-10.452-3.04-11.215-8.506L-66.152-57.258z" fill="#fff"/></g><g transform="translate(10.37 28.87)" clip-path="url(#G)"><linearGradient id="F" gradientUnits="userSpaceOnUse" x1="56.68" y1="114.377" x2="122.209" y2="145.088"><stop offset="0%" stop-color="#49c8ff"/><stop offset="100%" stop-color="#be35ff"/></linearGradient><clipPath id="G"><path d="M-90.37-124.88h160v192h-160z"/></clipPath><path transform="translate(-90.37 -124.88)" d="M 118.649 103.244 L 56.8226 111.376 C 54.3836 111.697 52.6843 113.807 53.027 116.09 L 57.0613 142.955 C 57.4041 145.237 59.6591 146.827 62.0981 146.507 L 123.924 138.375 C 126.363 138.054 128.063 135.943 127.72 133.661 L 123.686 106.796 C 123.343 104.513 121.088 102.923 118.649 103.244 Z" stroke="url(#F)" stroke-width="4" fill="none"/></g><g transform="translate(10.37 29.39)" clip-path="url(#I)"><linearGradient id="H" gradientUnits="userSpaceOnUse" x1="61.766" y1="117.538" x2="121.328" y2="133.876"><stop offset="0%" stop-color="#4bc7ff"/><stop offset="100%" stop-color="#b93dff"/></linearGradient><clipPath id="I"><path d="M-90.37-125.39h160v192h-160z"/></clipPath><path transform="translate(-90.37 -125.39)" d="M64.648 140.356l-3.356-23.213 7.282-.995 8.516 7.539 6.048-9.53 7.282-.994 3.356 23.212-7.282.995-1.925-13.313-6.048 9.53-8.516-7.54 1.925 13.313-7.282.996zm45.512-6.22l-12.551-9.771 7.282-.996-1.728-11.948 7.283-.994 1.727 11.947 7.282-.995-9.295 12.757z" fill="url(#H)"/></g><g transform="translate(-3.59 -33.1)" clip-path="url(#K)"><linearGradient id="J" gradientUnits="userSpaceOnUse" x1="45.296" y1="42.033" x2="84.585" y2="84.667"><stop offset="0%" stop-color="#41d1ff"/><stop offset="100%" stop-color="#bd34fe"/></linearGradient><clipPath id="K"><path d="M-76.4-62.9h160v192h-160z"/></clipPath><path transform="translate(-76.4 -62.9)" d="M106.461 37.673L85.09 89.182c-.441 1.064-1.943 1.273-2.68.374l-35.848-43.77c-.803-.98-.021-2.404 1.295-2.362l29.054.932a1.64 1.64 0 0 0 .547-.075l27.07-8.521c1.249-.393 2.411.758 1.932 1.913z" fill="url(#J)"/></g><g transform="translate(1.78 -39.9)" clip-path="url(#M)"><linearGradient id="L" gradientUnits="userSpaceOnUse" x1="73.829" y1="34.598" x2="85.124" y2="75.213"><stop offset="0%" stop-color="#ffea83"/><stop offset="8.33333%" stop-color="#ffdd35"/><stop offset="100%" stop-color="#ffa800"/></linearGradient><clipPath id="M"><path d="M-81.78-56.1h160v192h-160z"/></clipPath><path transform="translate(-81.78 -56.1)" d="M88.812 31.5l-20.4 6.703c-.335.11-.55.419-.523.752l1.702 20.672c.04.487.566.798 1.051.621l5.651-2.058c.529-.192 1.088.194 1.052.726l-.568 8.226c-.038.554.565.941 1.1.706l3.454-1.519c.536-.235 1.14.153 1.1.707l-.924 12.926c-.058.809 1.114 1.087 1.479.351l.244-.491L95.63 45.426c.208-.576-.375-1.122-.985-.923l-5.849 1.904c-.55.179-1.102-.251-1.018-.792l2.055-13.324c.084-.542-.472-.972-1.021-.792z" fill="url(#L)"/></g></g><path d="M491.953 199.093l54.87-64.016c1.415-1.651 1.473-4.07.138-5.786l-21.35-27.45c-.867-1.114-2.2-1.766-3.611-1.766h-18.3-30.5-18.3c-1.412 0-2.745.652-3.611 1.766l-21.35 27.45c-1.335 1.716-1.277 4.135.138 5.786l54.871 64.016c.119.141.246.275.38.4.248.232.521.435.814.606a4.57 4.57 0 0 0 2.309.625l.353-.013c.615-.048 1.204-.218 1.737-.492.276-.142.537-.312.779-.506.23-.185.443-.393.634-.62z" stroke="#000" stroke-linejoin="round" fill="none" stroke-width="9.15"/><path d="M473.2 104.65h-18.3l-21.35 27.45h30.5l9.15-27.45z" fill="#bdddf4"/><path d="M543.35 132.1L522 104.65h-18.3l9.15 27.45h30.5z" fill="#5dadec"/><path d="M512.85 132.1h30.5l-54.9 64.05 24.4-64.05z" fill="#4289c1"/><g fill="#8ccaf7"><path d="M464.05 132.1h-30.5l54.9 64.05-24.4-64.05z"/><path d="M473.2 104.65l-9.15 27.45h48.8l-9.15-27.45h-30.5z"/></g><path d="M488.45 196.15l-24.4-64.05h48.8l-24.4 64.05z" fill="#5dadec"/><g stroke="#000" stroke-linejoin="round" fill="none" stroke-linecap="round" stroke-width="8.78"><path d="M298.12 150.18h61.46"/><path d="M328.85 119.45v61.46"/></g></svg>
