<svg xmlns="http://www.w3.org/2000/svg" width="48" height="48" fill="none" xmlns:v="https://vecta.io/nano"><defs><linearGradient y2="1.004" x2=".896" y1=".041" x1=".039" id="A"><stop stop-color="#49c7ff"/><stop stop-color="#bd36ff" offset="1"/></linearGradient></defs><path fill="url(#A)" d="M5.036 7.878c-.283-2.039 1.12-3.924 3.133-4.21L33.684.037c2.013-.287 3.874 1.134 4.157 3.172l5.123 36.913c.283 2.039-1.12 3.923-3.133 4.21l-25.515 3.631c-2.013.286-3.874-1.134-4.157-3.172L5.036 7.878z"/><path fill="#fff" d="M6.859 7.619a1.86 1.86 0 0 1 1.566-2.105L33.94 1.882c1.007-.143 1.937.567 2.079 1.586l5.123 36.913a1.86 1.86 0 0 1-1.566 2.105L14.06 46.118c-1.007.143-1.937-.567-2.079-1.586L6.859 7.619z"/><path transform="rotate(350 23.424 23.967)" stroke="#000" stroke-linejoin="round" stroke-width="3" d="M23.906 30.666l7.55-8.808a.63.63 0 0 0 .019-.796l-2.938-3.777a.63.63 0 0 0-.497-.243h-2.518-4.197-2.518a.63.63 0 0 0-.497.243l-2.938 3.777a.63.63 0 0 0 .019.796l7.55 8.808c.016.019.034.038.052.055a.63.63 0 0 0 .43.169l.049-.002a.63.63 0 0 0 .346-.137.63.63 0 0 0 .087-.085z"/><g stroke="null"><path transform="rotate(350 17.906 20.423)" fill="#bdddf4" d="M20.634 18.534h-2.518l-2.938 3.777h4.197l1.259-3.777z"/><path transform="rotate(350 27.412 18.747)" fill="#5dadec" d="M30.139 20.635l-2.938-3.777h-2.518l1.259 3.777h4.197z"/><path transform="rotate(350 27.471 25.128)" fill="#4289c1" d="M27.052 20.722h4.197l-7.554 8.813 3.357-8.813z"/><g fill="#8ccaf7"><path transform="rotate(350 20.032 26.44)" d="M20.452 22.034h-4.197l7.554 8.813-3.357-8.813z"/><path transform="rotate(350 22.659 19.585)" d="M20.56 17.696l-1.259 3.777h6.715l-1.259-3.777H20.56z"/></g><path transform="rotate(350 23.752 25.784)" fill="#5dadec" d="M23.752 30.19l-3.357-8.813h6.715l-3.357 8.813z"/></g></svg>
