<svg xmlns="http://www.w3.org/2000/svg" xmlns:v="https://vecta.io/nano" width="48" height="48" fill="none"><path d="M5.036 7.878c-.283-2.039 1.12-3.924 3.133-4.21L33.684.037c2.013-.287 3.874 1.134 4.157 3.172l5.123 36.913c.283 2.039-1.12 3.923-3.133 4.21l-25.515 3.631c-2.013.287-3.874-1.134-4.157-3.172L5.036 7.878z" fill="url(#A)"/><path d="M6.859 7.619a1.86 1.86 0 0 1 1.566-2.105L33.94 1.882c1.007-.143 1.937.567 2.079 1.586l5.123 36.913a1.86 1.86 0 0 1-1.566 2.105L14.06 46.118c-1.007.143-1.937-.567-2.079-1.586L6.859 7.619z" fill="#fff"/><path d="M33.186 14.92l-7.335 19.238a.54.54 0 0 1-.933.134L12.334 17.834c-.282-.368-.013-.9.446-.881l10.125.408c.064.003.129-.007.19-.027l9.413-3.135a.55.55 0 0 1 .677.72z" fill="url(#B)"/><path d="M27.025 12.576l-7.09 2.467c-.116.04-.191.156-.181.28l.637 7.74c.015.182.199.3.367.235l1.964-.758c.184-.071.38.075.368.274l-.18 3.078c-.012.207.199.353.385.266l1.2-.561c.186-.087.397.06.385.267l-.294 4.836c-.018.302.39.409.516.134l.084-.183 4.245-12.847c.071-.215-.133-.421-.345-.347l-2.033.701c-.191.066-.384-.096-.357-.299l.687-4.982c.028-.203-.166-.365-.357-.298z" fill="url(#C)"/><defs><linearGradient id="A" x1="6.482" y1="1.976" x2="39.05" y2="48.206" gradientUnits="userSpaceOnUse"><stop stop-color="#49c7ff"/><stop offset="1" stop-color="#bd36ff"/></linearGradient><linearGradient id="B" x1="11.885" y1="16.427" x2="26.725" y2="31.418" gradientUnits="userSpaceOnUse"><stop stop-color="#41d1ff"/><stop offset="1" stop-color="#bd34fe"/></linearGradient><linearGradient id="C" x1="21.814" y1="13.705" x2="26.246" y2="28.807" gradientUnits="userSpaceOnUse"><stop stop-color="#ffea83"/><stop offset=".083" stop-color="#ffdd35"/><stop offset="1" stop-color="#ffa800"/></linearGradient></defs></svg>
